<?xml version="1.0" ?>

<!-- Uploaded to: SVG Repo, www.svgrepo.com, Generator: SVG Repo Mixer Tools -->
<svg width="800px" height="800px" viewBox="0 0 64 64" id="Layer_1" version="1.1" xml:space="preserve" xmlns="http://www.w3.org/2000/svg" xmlns:xlink="http://www.w3.org/1999/xlink">

<style type="text/css">
	.st0{fill:#EF1D1D;}
	.st1{fill:#C43030;}
	.st2{fill:#B2B1CF;stroke:#000000;stroke-miterlimit:10;}
	.st3{fill:#8E8EB2;}
	.st4{opacity:0.5;fill:none;stroke:#FFFFFF;stroke-width:2;stroke-linecap:round;stroke-miterlimit:10;enable-background:new    ;}
	.st5{fill:#EDC620;}
	.st6{opacity:0.5;fill:#FFFFFF;enable-background:new    ;}
	.st7{fill:#D3AF18;}
</style>
<rect width="100%" height="100%" fill="none"/>
<path class="st0" d="M16.8,55.5c-3.5,0-6.3-2.9-6.3-6.4V14.9c0-3.5,2.8-6.4,6.3-6.4h17.4c3.5,0,6.3,2.9,6.3,6.4v34.3  c0,3.5-2.8,6.4-6.3,6.4L16.8,55.5L16.8,55.5z"/>

<path d="M34.2,9c3.2,0,5.8,2.6,5.8,5.9v34.3c0,3.2-2.6,5.9-5.8,5.9H16.8c-3.2,0-5.8-2.6-5.8-5.9V14.9c0-3.2,2.6-5.9,5.8-5.9H34.2   M34.2,8H16.8c-3.7,0-6.8,3.1-6.8,6.9v34.3c0,3.8,3.1,6.9,6.8,6.9h17.4c3.7,0,6.8-3.1,6.8-6.9V14.9C41,11.1,37.9,8,34.2,8L34.2,8z"/>

<g>

<path class="st1" d="M34.2,9h-1c3.2,0,5.8,2.6,5.8,5.9v34.3c0,3.2-2.6,5.9-5.8,5.9h1c3.2,0,5.8-2.6,5.8-5.9V14.9   C40,11.6,37.4,9,34.2,9z"/>

</g>

<path class="st2" d="M34,32.5c1.4,0,2.5-1.1,2.5-2.5V15c0-1.4-1.1-2.5-2.5-2.5H17c-1.4,0-2.5,1.1-2.5,2.5v15c0,1.4,1.1,2.5,2.5,2.5  H34z"/>

<path class="st3" d="M35,30V15c0-1.1-0.9-2-2-2h1c1.1,0,2,0.9,2,2v15c0,1.1-0.9,2-2,2h-1C34.1,32,35,31.1,35,30z"/>

<path class="st4" d="M17,22v-5c0-1.1,0.9-2,2-2"/>

<line class="st4" x1="17" x2="17" y1="27" y2="26"/>

<path class="st4" d="M34,28c0,1.1-0.9,2-2,2"/>

<path class="st5" d="M53,24.5c0-1.4-1.1-2.5-2.5-2.5H41v21h9.5c1.4,0,2.5-1.1,2.5-2.5V24.5z"/>

<circle class="st6" cx="48" cy="26" r="2"/>

<path d="M50.5,44H40V21h10.5c1.9,0,3.5,1.6,3.5,3.5v16C54,42.4,52.4,44,50.5,44z M41,43h9.5c1.4,0,2.5-1.1,2.5-2.5v-16  c0-1.4-1.1-2.5-2.5-2.5H41V43z"/>

<path class="st7" d="M50.5,22h-1c1.4,0,2.5,1.1,2.5,2.5v16c0,1.4-1.1,2.5-2.5,2.5h1c1.4,0,2.5-1.1,2.5-2.5v-16  C53,23.1,51.9,22,50.5,22z"/>

<path class="st7" d="M49.5,41c-0.3,0-0.5-0.2-0.5-0.5v-10c0-0.3,0.2-0.5,0.5-0.5s0.5,0.2,0.5,0.5v10C50,40.8,49.8,41,49.5,41z"/>

<path class="st7" d="M46.5,41c-0.3,0-0.5-0.2-0.5-0.5v-10c0-0.3,0.2-0.5,0.5-0.5s0.5,0.2,0.5,0.5v10C47,40.8,46.8,41,46.5,41z"/>

<path class="st7" d="M43.5,41c-0.3,0-0.5-0.2-0.5-0.5v-16c0-0.3,0.2-0.5,0.5-0.5s0.5,0.2,0.5,0.5v16C44,40.8,43.8,41,43.5,41z"/>

<path class="st5" d="M32,39.5c-0.8,0-1.5-0.7-1.5-1.5v-1c0-0.8,0.7-1.5,1.5-1.5h3c0.8,0,1.5,0.7,1.5,1.5v1c0,0.8-0.7,1.5-1.5,1.5H32  z"/>

<path d="M35,36c0.6,0,1,0.4,1,1v1c0,0.6-0.4,1-1,1h-3c-0.6,0-1-0.4-1-1v-1c0-0.6,0.4-1,1-1H35 M35,35h-3c-1.1,0-2,0.9-2,2v1  c0,1.1,0.9,2,2,2h3c1.1,0,2-0.9,2-2v-1C37,35.9,36.1,35,35,35L35,35z"/>

<g>

<path class="st7" d="M35,36h-1c0.6,0,1,0.4,1,1v1c0,0.6-0.4,1-1,1h1c0.6,0,1-0.4,1-1v-1C36,36.4,35.6,36,35,36z"/>

</g>

<path class="st5" d="M24,39.5c-0.8,0-1.5-0.7-1.5-1.5v-1c0-0.8,0.7-1.5,1.5-1.5h3c0.8,0,1.5,0.7,1.5,1.5v1c0,0.8-0.7,1.5-1.5,1.5H24  z"/>

<path d="M27,36c0.6,0,1,0.4,1,1v1c0,0.6-0.4,1-1,1h-3c-0.6,0-1-0.4-1-1v-1c0-0.6,0.4-1,1-1H27 M27,35h-3c-1.1,0-2,0.9-2,2v1  c0,1.1,0.9,2,2,2h3c1.1,0,2-0.9,2-2v-1C29,35.9,28.1,35,27,35L27,35z"/>

<path class="st5" d="M24,45.5c-0.8,0-1.5-0.7-1.5-1.5v-1c0-0.8,0.7-1.5,1.5-1.5h3c0.8,0,1.5,0.7,1.5,1.5v1c0,0.8-0.7,1.5-1.5,1.5H24  z"/>

<path d="M27,42c0.6,0,1,0.4,1,1v1c0,0.6-0.4,1-1,1h-3c-0.6,0-1-0.4-1-1v-1c0-0.6,0.4-1,1-1H27 M27,41h-3c-1.1,0-2,0.9-2,2v1  c0,1.1,0.9,2,2,2h3c1.1,0,2-0.9,2-2v-1C29,41.9,28.1,41,27,41L27,41z"/>

<path class="st5" d="M32,51.5c-0.8,0-1.5-0.7-1.5-1.5v-7c0-0.8,0.7-1.5,1.5-1.5h3c0.8,0,1.5,0.7,1.5,1.5v7c0,0.8-0.7,1.5-1.5,1.5H32  z"/>

<path d="M35,42c0.6,0,1,0.4,1,1v7c0,0.6-0.4,1-1,1h-3c-0.6,0-1-0.4-1-1v-7c0-0.6,0.4-1,1-1H35 M35,41h-3c-1.1,0-2,0.9-2,2v7  c0,1.1,0.9,2,2,2h3c1.1,0,2-0.9,2-2v-7C37,41.9,36.1,41,35,41L35,41z"/>

<g>

<path class="st7" d="M35,42h-1c0.6,0,1,0.4,1,1v7c0,0.6-0.4,1-1,1h1c0.6,0,1-0.4,1-1v-7C36,42.4,35.6,42,35,42z"/>

</g>

<path class="st5" d="M24,51.5c-0.8,0-1.5-0.7-1.5-1.5v-1c0-0.8,0.7-1.5,1.5-1.5h3c0.8,0,1.5,0.7,1.5,1.5v1c0,0.8-0.7,1.5-1.5,1.5H24  z"/>

<path d="M27,48c0.6,0,1,0.4,1,1v1c0,0.6-0.4,1-1,1h-3c-0.6,0-1-0.4-1-1v-1c0-0.6,0.4-1,1-1H27 M27,47h-3c-1.1,0-2,0.9-2,2v1  c0,1.1,0.9,2,2,2h3c1.1,0,2-0.9,2-2v-1C29,47.9,28.1,47,27,47L27,47z"/>

<path class="st5" d="M16,45.5c-0.8,0-1.5-0.7-1.5-1.5v-1c0-0.8,0.7-1.5,1.5-1.5h3c0.8,0,1.5,0.7,1.5,1.5v1c0,0.8-0.7,1.5-1.5,1.5H16  z"/>

<path d="M19,42c0.6,0,1,0.4,1,1v1c0,0.6-0.4,1-1,1h-3c-0.6,0-1-0.4-1-1v-1c0-0.6,0.4-1,1-1H19 M19,41h-3c-1.1,0-2,0.9-2,2v1  c0,1.1,0.9,2,2,2h3c1.1,0,2-0.9,2-2v-1C21,41.9,20.1,41,19,41L19,41z"/>

<path class="st5" d="M16,51.5c-0.8,0-1.5-0.7-1.5-1.5v-1c0-0.8,0.7-1.5,1.5-1.5h3c0.8,0,1.5,0.7,1.5,1.5v1c0,0.8-0.7,1.5-1.5,1.5H16  z"/>

<path d="M19,48c0.6,0,1,0.4,1,1v1c0,0.6-0.4,1-1,1h-3c-0.6,0-1-0.4-1-1v-1c0-0.6,0.4-1,1-1H19 M19,47h-3c-1.1,0-2,0.9-2,2v1  c0,1.1,0.9,2,2,2h3c1.1,0,2-0.9,2-2v-1C21,47.9,20.1,47,19,47L19,47z"/>

<path class="st5" d="M16,39.5c-0.8,0-1.5-0.7-1.5-1.5v-1c0-0.8,0.7-1.5,1.5-1.5h3c0.8,0,1.5,0.7,1.5,1.5v1c0,0.8-0.7,1.5-1.5,1.5H16  z"/>

<path d="M19,36c0.6,0,1,0.4,1,1v1c0,0.6-0.4,1-1,1h-3c-0.6,0-1-0.4-1-1v-1c0-0.6,0.4-1,1-1H19 M19,35h-3c-1.1,0-2,0.9-2,2v1  c0,1.1,0.9,2,2,2h3c1.1,0,2-0.9,2-2v-1C21,35.9,20.1,35,19,35L19,35z"/>

<g>

<path class="st7" d="M27,36h-1c0.6,0,1,0.4,1,1v1c0,0.6-0.4,1-1,1h1c0.6,0,1-0.4,1-1v-1C28,36.4,27.6,36,27,36z"/>

</g>

<g>

<path class="st7" d="M19,36h-1c0.6,0,1,0.4,1,1v1c0,0.6-0.4,1-1,1h1c0.6,0,1-0.4,1-1v-1C20,36.4,19.6,36,19,36z"/>

</g>

<g>

<path class="st7" d="M19,42h-1c0.6,0,1,0.4,1,1v1c0,0.6-0.4,1-1,1h1c0.6,0,1-0.4,1-1v-1C20,42.4,19.6,42,19,42z"/>

</g>

<g>

<path class="st7" d="M27,42h-1c0.6,0,1,0.4,1,1v1c0,0.6-0.4,1-1,1h1c0.6,0,1-0.4,1-1v-1C28,42.4,27.6,42,27,42z"/>

</g>

<g>

<path class="st7" d="M27,48h-1c0.6,0,1,0.4,1,1v1c0,0.6-0.4,1-1,1h1c0.6,0,1-0.4,1-1v-1C28,48.4,27.6,48,27,48z"/>

</g>

<g>

<path class="st7" d="M19,48h-1c0.6,0,1,0.4,1,1v1c0,0.6-0.4,1-1,1h1c0.6,0,1-0.4,1-1v-1C20,48.4,19.6,48,19,48z"/>

</g>

</svg>